# AST/ASF file generated using VICON BodyLanguage
# -----------------------------------------------
:version 1.10
:name VICON
:units
  mass 1.0
  length 0.45
  angle deg
:documentation
   .ast/.asf automatically generated from VICON data using
   VICON BodyBuilder and BodyLanguage model FoxedUp or BRILLIANT.MOD
:root
   order TX TY TZ RX RY RZ
   axis XYZ
   position 0 0 0  
   orientation 0 0 0 
:bonedata
  begin
     id 1 
     name lhipjoint
     direction 0.660183 -0.676772 0.325788 
     length 2.75133 
     axis 0 0 0  XYZ
  end
  begin
     id 2 
     name lfemur
     direction 0.34202 -0.939693 0  
     length 7.70317  
     axis 0 0 20  XYZ
    dof rx ry rz
    limits (-160.0 20.0)
           (-70.0 70.0)
           (-60.0 70.0)
  end
  begin
     id 3 
     name ltibia
     direction 0.342105 -0.939662 0   
     length 7.18701   
     axis 0 0 20   XYZ
    dof rx
    limits (-10.0 170.0)
  end
  begin
     id 4 
     name lfoot
     direction 0.14163 -0.389126 0.910232   
     length 2.41719   
     axis -90 7.62852e-016 20   XYZ
    dof rx rz
    limits (-45.0 90.0)
           (-70.0 20.0)
  end
  begin
     id 5 
     name ltoes
     direction 1.53533e-011 -4.21926e-011 1   
     length 1.18611   
     axis -90 7.62852e-016 20   XYZ
    dof rx
    limits (-90.0 20.0)
  end
  begin
     id 6 
     name rhipjoint
     direction -0.6658 -0.67229 0.323631   
     length 2.76968  
     axis 0 0 0  XYZ 
  end
  begin
     id 7 
     name rfemur
     direction -0.34202 -0.939693 0   
     length 7.92547   
     axis 0 0 -20   XYZ
    dof rx ry rz
    limits (-160.0 20.0)
           (-70.0 70.0)
           (-70.0 60.0)
  end
  begin
     id 8 
     name rtibia
     direction -0.342022 -0.939692 0   
     length 7.22641   
     axis 0 0 -20   XYZ
    dof rx
    limits (-10.0 170.0)
 end
 begin
     id 9 
     name rfoot
     direction -0.105675 -0.29034 0.951071   
     length 2.48149  
     axis -90 -7.62852e-016 -20   XYZ
    dof rx rz
    limits (-45.0 90.0)
           (-20.0 70.0)
  end
  begin
     id 10 
     name rtoes
     direction -1.5349e-011 -4.21859e-011 1   
     length 1.23343   
     axis -90 -7.62852e-016 -20   XYZ
    dof rx
    limits (-90.0 20.0)
  end
  begin
     id 11 
     name lowerback
     direction 0.0104173 0.993624 -0.112266   
     length 2.00527   
     axis 0 0 0   XYZ
    dof rx ry rz
    limits (-20.0 45.0)
           (-30.0 30.0)
           (-30.0 30.0)
  end
  begin
     id 12 
     name upperback
     direction 0.00733149 0.999856 -0.0152913   
     length 2.01385   
     axis 0 0 0   XYZ
    dof rx ry rz
    limits (-20.0 45.0)
           (-30.0 30.0)
           (-30.0 30.0)
  end
  begin
     id 13 
     name thorax
     direction 0.0026304 0.999318 0.036841   
     length 2.03734   
     axis 0 0 0   XYZ
    dof rx ry rz
    limits (-20.0 45.0)
           (-30.0 30.0)
           (-30.0 30.0)
  end
  begin
     id 14 
     name lowerneck
     direction 0.0293154 0.998757 0.0403082   
     length 1.65303   
     axis 0 0 0   XYZ
    dof rx ry rz
    limits (-20.0 45.0)
           (-30.0 30.0)
           (-30.0 30.0)
  end
  begin
     id 15 
     name upperneck
     direction -0.0376619 0.998184 -0.0470083   
     length 1.60926   
     axis 0 0 0   XYZ
    dof rx ry rz
    limits (-20.0 45.0)
           (-30.0 30.0)
           (-30.0 30.0)
  end
  begin
     id 16
     name head
     direction -0.0170133 0.999635 -0.0209778  
     length 1.73625  
     axis 0 0 0   XYZ
    dof rx ry rz
    limits (-20.0 45.0)
           (-30.0 30.0)
           (-30.0 30.0)
  end
  begin
     id 17 
     name lclavicle
     direction 0.919857 0.39181 -0.0186333  
     length 3.75313  
     axis 0 0 0   XYZ
    dof ry rz
    limits (-20.0 10.0)
           (0.0 20.0)
  end
  begin
     id 18 
     name lhumerus
     direction 1 -4.48988e-011 1.44029e-027   
     length 5.49313   
     axis 180 -30 -90   XYZ
    dof rx ry rz
    limits (-60.0 90.0)
           (-90.0 90.0)
           (-90.0 90.0)
  end
  begin
     id 19
     name lradius
     direction 1 -4.48924e-011 7.46281e-027   
     length 3.29037   
     axis 180 -30 -90   XYZ
    dof rx
    limits (-10.0 170.0)
  end
  begin
     id 20
     name lwrist
     direction 1 -4.48955e-011 2.19879e-026   
     length 1.64519   
     axis -1.34358e-014 90 90   XYZ
    dof ry
    limits (-180.0 0.0)
 end
  begin
     id 21 
     name lhand
     direction 1 -4.48978e-011 4.39747e-026   
     length 0.729656   
     axis -2.80598e-014 90 90   XYZ
    dof rx rz
    limits (-90.0 90.0)
           (-45.0 45.0)
  end
  begin
     id 22 
     name lfingers
     direction 1 -4.49071e-011 8.79411e-026   
     length 0.588268   
     axis -5.61193e-014 90 90   XYZ
    dof rx
    limits (0.0 90.0)
  end
  begin
     id 23
     name lthumb
     direction 0.707107 -6.34817e-011 0.707107   
     length 0.844638   
     axis -90 45 -9.86923e-015   XYZ
    dof rx rz
    limits (-45.0 45.0)
           (-45.0 45.0)
  end
  begin
     id 24 
     name rclavicle
     direction -0.919898 0.388279 0.0550233   
     length 3.7171  
     axis 0 0 0   XYZ 
    dof ry rz
    limits (-10.0 20.0)
           (-20.0 0.0)
  end
  begin
     id 25 
     name rhumerus
     direction -1 -4.48968e-011 9.98372e-028  
     length 5.23684   
     axis 180 30 90   XYZ
    dof rx ry rz
    limits (-90.0 60.0)
           (-90.0 90.0)
           (-90.0 90.0)
  end
  begin
     id 26 
     name rradius
     direction -1 -4.48956e-011 1.01023e-026   
     length 3.38251   
     axis 180 30 90   XYZ
    dof rx
    limits (-10.0 170.0)
  end
  begin
     id 27 
     name rwrist
     direction -1 -4.4892e-011 2.19886e-026   
     length 1.69126   
     axis -1.34358e-014 -90 -90   XYZ
    dof ry
    limits (-180.0 0.0)
  end
  begin
     id 28
     name rhand
     direction -1 -4.49024e-011 4.39727e-026   
     length 0.691454   
     axis -2.80598e-014 -90 -90   XYZ
    dof rx rz
    limits (-90.0 90.0)
           (-45.0 45.0)
  end
  begin
     id 29
     name rfingers
     direction -1 -4.49097e-011 8.79388e-026   
     length 0.557468   
     axis -5.61193e-014 -90 -90   XYZ
    dof rx
    limits (0.0 90.0)
  end
  begin
     id 30
     name rthumb
     direction -0.707107 -6.34938e-011 0.707107   
     length 0.800416   
     axis -90 -45 9.86923e-015   XYZ
    dof rx rz
    limits (-45.0 45.0)
           (-45.0 45.0)
  end
:hierarchy
  begin
    root lhipjoint rhipjoint lowerback
    lhipjoint lfemur
    lfemur ltibia
    ltibia lfoot
    lfoot ltoes
    rhipjoint rfemur
    rfemur rtibia
    rtibia rfoot
    rfoot rtoes
    lowerback upperback
    upperback thorax
    thorax lowerneck lclavicle rclavicle
    lowerneck upperneck
    upperneck head
    lclavicle lhumerus
    lhumerus lradius
    lradius lwrist
    lwrist lhand lthumb
    lhand lfingers
    rclavicle rhumerus
    rhumerus rradius
    rradius rwrist
    rwrist rhand rthumb
    rhand rfingers
  end

#!OML:ASF H:\BabyWalks\Project 1\Capture day 1\Session 1\baby.ASF
:FULLY-SPECIFIED
:DEGREES
92
root -37.0423 17.5298 -2.27616 -26.5682 82.6439 -30.4018
lowerback 17.9412 -1.52086 0.231936
upperback 6.38043 -1.47828 2.37229
thorax -3.14946 -0.599414 2.66731
lowerneck -4.76812 3.2472 1.64904
upperneck -10.2669 4.23426 -4.5754
head -2.29618 2.26952 -1.76476
rclavicle -9.65348e-015 1.41634e-015
rhumerus -56.116 34.262 -95.0446
rradius 49.5159
rwrist -9.23443
rhand -9.13927 -17.1824
rfingers 7.12502
rthumb 16.8124 -46.4746
lclavicle -9.65348e-015 1.41634e-015
lhumerus -55.7894 -10.987 91.2911
lradius 51.1926
lwrist 6.71793
lhand -1.91086 10.9518
lfingers 7.12502
lthumb 23.7589 39.503
rfemur -1.68999 6.55013 27.9792
rtibia 20.8165
rfoot -23.3313 -7.1932
rtoes 5.81898
lfemur -24.6954 -7.06876 -9.3305
ltibia 34.2423
lfoot -18.1368 -10.2335
ltoes -3.12842
93
root -37.0362 17.5192 -2.27789 -27.2774 82.6669 -31.148
lowerback 18.0473 -1.51021 0.288743
upperback 6.40934 -1.44817 2.38919
thorax -3.17654 -0.582392 2.64947
lowerneck -4.69932 3.22012 1.66232
upperneck -10.32 4.1964 -4.58882
head -2.32669 2.25192 -1.77458
rclavicle -4.47266e-016 -3.05134e-014
rhumerus -56.1699 34.1572 -94.9375
rradius 49.6705
rwrist -9.31797
rhand -9.20164 -17.1737
rfingers 7.12502
rthumb 16.7523 -46.4709
lclavicle -4.47266e-016 -3.05134e-014
lhumerus -55.8259 -10.9938 91.343
lradius 51.2076
lwrist 6.73723
lhand -1.87959 10.9623
lfingers 7.12502
lthumb 23.7889 39.5096
rfemur -1.82432 6.41891 28.0404
rtibia 21.0746
rfoot -23.4781 -7.15048
rtoes 5.65512
lfemur -24.9259 -6.97729 -9.23948
ltibia 34.6427
lfoot -18.3603 -10.525
ltoes -3.14368
94
root -37.0283 17.5084 -2.27971 -28.0812 82.6871 -31.9738
lowerback 18.1607 -1.50123 0.351246
upperback 6.44686 -1.41848 2.40482
thorax -3.19836 -0.56531 2.6271
lowerneck -4.64559 3.19702 1.6691
upperneck -10.3387 4.165 -4.58798
head -2.34326 2.23662 -1.77733
rclavicle 1.7903e-014 1.8487e-014
rhumerus -56.2293 34.0447 -94.8239
rradius 49.8317
rwrist -9.4136
rhand -9.27373 -17.184
rfingers 7.12502
rthumb 16.6829 -46.4871
lclavicle 1.7903e-014 1.8487e-014
lhumerus -55.8666 -10.9822 91.3784
lradius 51.2302
lwrist 6.74598
lhand -1.85153 10.9669
lfingers 7.12502
lthumb 23.8158 39.5107
rfemur -1.91747 6.30745 28.1169
rtibia 21.2992
rfoot -23.6172 -7.14152
rtoes 5.43047
lfemur -25.1392 -6.86559 -9.14188
ltibia 35.0578
lfoot -18.6278 -10.8623
ltoes -3.14906
95
root -37.0185 17.4973 -2.28169 -28.9809 82.7047 -32.8842
lowerback 18.2809 -1.49664 0.421937
upperback 6.49034 -1.39261 2.41702
thorax -3.21735 -0.549837 2.59724
lowerneck -4.62269 3.17836 1.66369
upperneck -10.3051 4.14153 -4.56304
head -2.33745 2.2239 -1.768
rclavicle 3.58434e-015 1.49089e-016
rhumerus -56.2963 33.9288 -94.7119
rradius 49.9968
rwrist -9.51651
rhand -9.35021 -17.2213
rfingers 7.12502
rthumb 16.6093 -46.5306
lclavicle 3.58434e-015 1.49089e-016
lhumerus -55.9143 -10.9498 91.3945
lradius 51.2583
lwrist 6.74824
lhand -1.83017 10.9777
lfingers 7.12502
lthumb 23.8363 39.5188
rfemur -1.97142 6.18296 28.2034
rtibia 21.4837
rfoot -23.7457 -7.12487
rtoes 5.22044
lfemur -25.3414 -6.72874 -9.0395
ltibia 35.4856
lfoot -18.9408 -11.2436
ltoes -3.16563
96
root -37.0068 17.4862 -2.28383 -29.9853 82.7195 -33.8921
lowerback 18.3986 -1.49316 0.495467
upperback 6.54043 -1.36713 2.43071
thorax -3.22795 -0.534425 2.56717
lowerneck -4.61839 3.16115 1.65962
upperneck -10.2257 4.12046 -4.52957
head -2.31318 2.21105 -1.75448
rclavicle 3.58806e-014 2.17421e-015
rhumerus -56.3683 33.808 -94.5937
rradius 50.1599
rwrist -9.61794
rhand -9.43122 -17.2722
rfingers 7.12502
rthumb 16.5313 -46.588
lclavicle 3.58806e-014 2.17421e-015
lhumerus -55.9643 -10.8977 91.3978
lradius 51.2864
lwrist 6.7419
lhand -1.81648 10.9862
lfingers 7.12502
lthumb 23.8494 39.5257
rfemur -1.98778 6.07983 28.3059
rtibia 21.6275
rfoot -23.8699 -7.13964
rtoes 5.00049
lfemur -25.5327 -6.57331 -8.92813
ltibia 35.9241
lfoot -19.305 -11.6592
ltoes -3.20689
97
root -36.9928 17.4752 -2.28618 -31.086 82.7295 -34.9864
lowerback 18.5195 -1.4918 0.572252
upperback 6.59671 -1.34324 2.44395
thorax -3.23344 -0.51959 2.53504
lowerneck -4.65033 3.14812 1.64967
upperneck -10.0834 4.10632 -4.47792
head -2.26194 2.19999 -1.73159
rclavicle 2.44381e-014 1.26104e-015
rhumerus -56.4437 33.6848 -94.475
rradius 50.313
rwrist -9.71384
rhand -9.52237 -17.3359
rfingers 7.12502
rthumb 16.4435 -46.659
lclavicle 2.44381e-014 1.26104e-015
lhumerus -56.0161 -10.8219 91.3852
lradius 51.309
lwrist 6.72449
lhand -1.81479 10.9934
lfingers 7.12502
lthumb 23.851 39.5326
rfemur -1.9626 5.99015 28.4224
rtibia 21.7277
rfoot -23.9782 -7.17635
rtoes 4.75055
lfemur -25.7092 -6.40116 -8.80985
ltibia 36.3704
lfoot -19.7149 -12.101
ltoes -3.28325
98
root -36.9765 17.4646 -2.28876 -32.2713 82.7335 -36.1601
lowerback 18.6402 -1.49272 0.653026
upperback 6.65653 -1.32132 2.45582
thorax -3.235 -0.505566 2.49946
lowerneck -4.72563 3.1383 1.63827
upperneck -9.86529 4.09748 -4.41038
head -2.17835 2.18956 -1.70044
rclavicle 1.09068e-014 -1.50952e-014
rhumerus -56.5232 33.561 -94.3589
rradius 50.4495
rwrist -9.79549
rhand -9.61435 -17.3976
rfingers 7.12502
rthumb 16.355 -46.728
lclavicle 1.09068e-014 -1.50952e-014
lhumerus -56.0718 -10.7254 91.357
lradius 51.3266
lwrist 6.70259
lhand -1.81211 11.0078
lfingers 7.12502
lthumb 23.8536 39.5467
rfemur -1.90171 5.9151 28.5522
rtibia 21.7858
rfoot -24.0736 -7.23289
rtoes 4.49899
lfemur -25.872 -6.2244 -8.68252
ltibia 36.8207
lfoot -20.1618 -12.5498
ltoes -3.39075
99
root -36.9577 17.4546 -2.29153 -33.5147 82.7321 -37.3892
lowerback 18.7601 -1.49302 0.729844
upperback 6.71556 -1.29912 2.46783
thorax -3.23672 -0.491421 2.46617
lowerneck -4.82906 3.13195 1.63167
upperneck -9.57569 4.09346 -4.33318
head -2.06667 2.17964 -1.6648
rclavicle 2.76124e-014 -1.27781e-014
rhumerus -56.6125 33.4332 -94.2468
rradius 50.5636
rwrist -9.86487
rhand -9.71264 -17.4473
rfingers 7.12502
rthumb 16.2604 -46.7855
lclavicle 2.76124e-014 -1.27781e-014
lhumerus -56.1357 -10.6141 91.3194
lradius 51.335
lwrist 6.68129
lhand -1.81121 11.0215
lfingers 7.12502
lthumb 23.8545 39.5603
rfemur -1.80711 5.86301 28.6934
rtibia 21.8024
rfoot -24.1537 -7.31971
rtoes 4.22137
lfemur -26.0246 -6.04393 -8.55107
ltibia 37.2704
lfoot -20.6294 -12.9967
ltoes -3.52396
100
root -36.9364 17.4446 -2.29442 -34.7546 82.7232 -38.6153
lowerback 18.8773 -1.48716 0.795527
upperback 6.77274 -1.271 2.47841
thorax -3.23882 -0.474501 2.43634
lowerneck -4.96604 3.12467 1.63597
upperneck -9.21051 4.08791 -4.2494
head -1.92514 2.16697 -1.62668
rclavicle 1.6319e-014 -3.37685e-014
rhumerus -56.7066 33.2919 -94.1353
rradius 50.6488
rwrist -9.91271
rhand -9.81599 -17.4798
rfingers 7.12502
rthumb 16.1608 -46.8261
lclavicle 1.6319e-014 -3.37685e-014
lhumerus -56.2051 -10.4978 91.2745
lradius 51.3306
lwrist 6.66044
lhand -1.80407 11.0363
lfingers 7.12502
lthumb 23.8613 39.5742
rfemur -1.68684 5.8039 28.835
rtibia 21.7803
rfoot -24.2058 -7.39569
rtoes 3.92013
lfemur -26.1638 -5.86615 -8.41709
ltibia 37.7153
lfoot -21.1056 -13.4258
ltoes -3.67429
